HIERARCHY
ROOT Hips
{
  OFFSET 0 0.240689 0
  CHANNELS 6 Xposition Yposition Zposition Zrotation Xrotation Yrotation
  JOINT Bip01_Spine0
  {
    OFFSET 0 -24.7459 49.7988
    CHANNELS 6 Xposition Yposition Zposition Zrotation Xrotation Yrotation
    JOINT Bip01_Pelvis
    {
      OFFSET 0 0 0
      CHANNELS 6 Xposition Yposition Zposition Zrotation Xrotation Yrotation
      JOINT Bip01_Spine0_Tail
      {
        OFFSET -6.47486 -3.86022 0
        CHANNELS 6 Xposition Yposition Zposition Zrotation Xrotation Yrotation
        JOINT Bip01_Spine0_Tail1
        {
          OFFSET 10.3837 -0.00825882 0
          CHANNELS 6 Xposition Yposition Zposition Zrotation Xrotation Yrotation
          JOINT Bip01_Spine0_Tail2
          {
            OFFSET 10.3837 -0.00826263 0
            CHANNELS 6 Xposition Yposition Zposition Zrotation Xrotation Yrotation
            JOINT Bip01_Spine0_Tail3
            {
              OFFSET 10.3837 -0.00825882 0
              CHANNELS 6 Xposition Yposition Zposition Zrotation Xrotation Yrotation
              JOINT Bip01_Spine0_Tail4
              {
                OFFSET 10.3837 -0.00826263 0
                CHANNELS 6 Xposition Yposition Zposition Zrotation Xrotation Yrotation
                End Site
                {
                  OFFSET 0 0 0
                }
              }
            }
          }
        }
      }
      JOINT Bip01_R_Thigh
      {
        OFFSET 0 -1.52588e-005 -8.75617
        CHANNELS 6 Xposition Yposition Zposition Zrotation Xrotation Yrotation
        JOINT Bip01_R_Calf
        {
          OFFSET 19.7638 0 0
          CHANNELS 6 Xposition Yposition Zposition Zrotation Xrotation Yrotation
          JOINT Bip01_R_Foot
          {
            OFFSET 18.6534 0 0
            CHANNELS 6 Xposition Yposition Zposition Zrotation Xrotation Yrotation
            JOINT Bip01_R_Toe0
            {
              OFFSET 5.09145 13.9567 0
              CHANNELS 6 Xposition Yposition Zposition Zrotation Xrotation Yrotation
              JOINT Bip01_R_Toe01
              {
                OFFSET 4.28803 0 0
                CHANNELS 6 Xposition Yposition Zposition Zrotation Xrotation Yrotation
                JOINT Bip01_R_Toe02
                {
                  OFFSET 3.85801 0 0
                  CHANNELS 6 Xposition Yposition Zposition Zrotation Xrotation Yrotation
                  End Site
                  {
                    OFFSET 0 0 0
                  }
                }
              }
            }
          }
        }
      }
      JOINT Bip01_L_Thigh
      {
        OFFSET 0 1.52588e-005 8.75617
        CHANNELS 6 Xposition Yposition Zposition Zrotation Xrotation Yrotation
        JOINT Bip01_L_Calf
        {
          OFFSET 19.7638 0 0
          CHANNELS 6 Xposition Yposition Zposition Zrotation Xrotation Yrotation
          JOINT Bip01_L_Foot
          {
            OFFSET 18.6534 0 0
            CHANNELS 6 Xposition Yposition Zposition Zrotation Xrotation Yrotation
            JOINT Bip01_L_Toe0
            {
              OFFSET 5.09144 13.9567 0
              CHANNELS 6 Xposition Yposition Zposition Zrotation Xrotation Yrotation
              JOINT Bip01_L_Toe01
              {
                OFFSET 4.28802 0 0
                CHANNELS 6 Xposition Yposition Zposition Zrotation Xrotation Yrotation
                JOINT Bip01_L_Toe02
                {
                  OFFSET 3.85801 0 0
                  CHANNELS 6 Xposition Yposition Zposition Zrotation Xrotation Yrotation
                  End Site
                  {
                    OFFSET 0 0 0
                  }
                }
              }
            }
          }
        }
      }
      JOINT Bip01_Spine
      {
        OFFSET 9.14835 -0.00640869 -1.1e-005
        CHANNELS 6 Xposition Yposition Zposition Zrotation Xrotation Yrotation
        JOINT Bip01_Spine1
        {
          OFFSET 8.04366 -0.00638199 0
          CHANNELS 6 Xposition Yposition Zposition Zrotation Xrotation Yrotation
          JOINT Bip01_Spine2
          {
            OFFSET 8.04367 -0.00639343 0
            CHANNELS 6 Xposition Yposition Zposition Zrotation Xrotation Yrotation
            JOINT Bip01_Spine3
            {
              OFFSET 8.04304 -0.00831222 0
              CHANNELS 6 Xposition Yposition Zposition Zrotation Xrotation Yrotation
              JOINT Bip01_Neck
              {
                OFFSET 10.6685 1.06813 0
                CHANNELS 6 Xposition Yposition Zposition Zrotation Xrotation Yrotation
                JOINT Bip01_R_Clavicle
                {
                  OFFSET -3.21661 -4.89635 -9.04802
                  CHANNELS 6 Xposition Yposition Zposition Zrotation Xrotation Yrotation
                  JOINT Bip01_R_UpperArm
                  {
                    OFFSET 19.0492 0 0
                    CHANNELS 6 Xposition Yposition Zposition Zrotation Xrotation Yrotation
                    JOINT Bip01_R_Forearm
                    {
                      OFFSET 10.3706 0 0
                      CHANNELS 6 Xposition Yposition Zposition Zrotation Xrotation Yrotation
                      JOINT Bip01_R_Hand
                      {
                        OFFSET 22.8632 0 0
                        CHANNELS 6 Xposition Yposition Zposition Zrotation Xrotation Yrotation
                        JOINT Bip01_R_Finger0
                        {
                          OFFSET 6.48259 0.103651 0.504496
                          CHANNELS 6 Xposition Yposition Zposition Zrotation Xrotation Yrotation
                          JOINT Bip01_R_Finger01
                          {
                            OFFSET 3.66847 0 0
                            CHANNELS 6 Xposition Yposition Zposition Zrotation Xrotation Yrotation
                            End Site
                            {
                              OFFSET 0 0 0
                            }
                          }
                        }
                      }
                    }
                  }
                }
                JOINT Bip01_L_Clavicle
                {
                  OFFSET -3.21661 -4.89641 9.04797
                  CHANNELS 6 Xposition Yposition Zposition Zrotation Xrotation Yrotation
                  JOINT Bip01_L_UpperArm
                  {
                    OFFSET 19.0492 0 0
                    CHANNELS 6 Xposition Yposition Zposition Zrotation Xrotation Yrotation
                    JOINT Bip01_L_Forearm
                    {
                      OFFSET 10.3706 0 0
                      CHANNELS 6 Xposition Yposition Zposition Zrotation Xrotation Yrotation
                      JOINT Bip01_L_Hand
                      {
                        OFFSET 22.8631 0 0
                        CHANNELS 6 Xposition Yposition Zposition Zrotation Xrotation Yrotation
                        JOINT Bip01_L_Finger0
                        {
                          OFFSET 6.48257 0.103655 -0.504492
                          CHANNELS 6 Xposition Yposition Zposition Zrotation Xrotation Yrotation
                          JOINT Bip01_L_Finger01
                          {
                            OFFSET 3.66844 0 0
                            CHANNELS 6 Xposition Yposition Zposition Zrotation Xrotation Yrotation
                            End Site
                            {
                              OFFSET 0 0 0
                            }
                          }
                        }
                      }
                    }
                  }
                }
                JOINT Bip01_Neck1
                {
                  OFFSET 7.52459 -0.00656509 0
                  CHANNELS 6 Xposition Yposition Zposition Zrotation Xrotation Yrotation
                  JOINT Bip01_Neck2
                  {
                    OFFSET 8.4783 -0.00588226 0
                    CHANNELS 6 Xposition Yposition Zposition Zrotation Xrotation Yrotation
                    JOINT Bip01_Head
                    {
                      OFFSET 8.41606 0 0
                      CHANNELS 6 Xposition Yposition Zposition Zrotation Xrotation Yrotation
                      JOINT EyesBlue
                      {
                        OFFSET 0 0 0
                        CHANNELS 6 Xposition Yposition Zposition Zrotation Xrotation Yrotation
                        JOINT EyesBlue_2
                        {
                          OFFSET 0 -0.500007 0
                          CHANNELS 6 Xposition Yposition Zposition Zrotation Xrotation Yrotation
                          End Site
                          {
                            OFFSET 0 0 0
                          }
                        }
                      }
                      JOINT Bip01_Head2_Eyeleds
                      {
                        OFFSET 6.52751 7.61746 2.2e-005
                        CHANNELS 6 Xposition Yposition Zposition Zrotation Xrotation Yrotation
                        End Site
                        {
                          OFFSET 0 0 0
                        }
                      }
                      JOINT Bip01_Head_Muzzle
                      {
                        OFFSET 2.88628 13.9448 3.88994
                        CHANNELS 6 Xposition Yposition Zposition Zrotation Xrotation Yrotation
                        End Site
                        {
                          OFFSET 0 0 0
                        }
                      }
                      JOINT Bip01_Head1_Jaw
                      {
                        OFFSET 0.271065 1.32405 0
                        CHANNELS 6 Xposition Yposition Zposition Zrotation Xrotation Yrotation
                        JOINT _Bip01_Head11_TungeControler
                        {
                          OFFSET 4.61616 5.82872 0
                          CHANNELS 6 Xposition Yposition Zposition Zrotation Xrotation Yrotation
                          JOINT _Bip01_Ponytail3_tunge
                          {
                            OFFSET 5.17785 2.98805 0
                            CHANNELS 6 Xposition Yposition Zposition Zrotation Xrotation Yrotation
                            JOINT Bip01_Ponytail31
                            {
                              OFFSET 5.57569 0 0
                              CHANNELS 6 Xposition Yposition Zposition Zrotation Xrotation Yrotation
                              JOINT Bip01_Ponytail32
                              {
                                OFFSET 2.93165 0 0
                                CHANNELS 6 Xposition Yposition Zposition Zrotation Xrotation Yrotation
                                JOINT Bip01_Ponytail3Nub
                                {
                                  OFFSET 3.30155 0 0
                                  CHANNELS 6 Xposition Yposition Zposition Zrotation Xrotation Yrotation
                                  End Site
                                  {
                                    OFFSET 0 0 0
                                  }
                                }
                              }
                            }
                          }
                        }
                        JOINT Bip01_Head_JawNub
                        {
                          OFFSET 15.5776 -0.000389099 0
                          CHANNELS 6 Xposition Yposition Zposition Zrotation Xrotation Yrotation
                          End Site
                          {
                            OFFSET 0 0 0
                          }
                        }
                      }
                      JOINT Bip01_Ponytail2
                      {
                        OFFSET 9.40334 1.03973 -6.51764
                        CHANNELS 6 Xposition Yposition Zposition Zrotation Xrotation Yrotation
                        JOINT Bip01_Ponytail21
                        {
                          OFFSET 2.77018 -0.00640106 1.33514e-005
                          CHANNELS 6 Xposition Yposition Zposition Zrotation Xrotation Yrotation
                          End Site
                          {
                            OFFSET 0 0 0
                          }
                        }
                      }
                      JOINT Bip01_Ponytail1
                      {
                        OFFSET 9.40368 1.03969 6.51768
                        CHANNELS 6 Xposition Yposition Zposition Zrotation Xrotation Yrotation
                        JOINT Bip01_Ponytail11
                        {
                          OFFSET 2.77018 -0.00640487 0
                          CHANNELS 6 Xposition Yposition Zposition Zrotation Xrotation Yrotation
                          End Site
                          {
                            OFFSET 0 0 0
                          }
                        }
                      }
                    }
                  }
                }
              }
            }
          }
        }
      }
    }
  }
}
MOTION
Frames:	4
Frame Time:	0.0333333
0 0 0.240689 -0 -90 -0 0.958396 -28.7007 47.3434 89.8254 -1.87618 84.9064 0 0 0 -90.0003 0.000293928 -79.0065 -6.35625 -3.85964 -1.23485 144.638 -6.45 -3.06763 10.3821 -0.008041 4.9e-005 -7.93557 -0.0564014 5.60098 10.3832 -0.008117 0.000128 -0.636554 0.244103 5.26313 10.3867 -0.007339 0.000117 25.6416 0.0900137 8.88746 10.3865 -0.007453 -0.000469 24.4677 4.16805 3.53532 1.1e-005 -1.1e-005 -8.75617 -87.1975 9.41408 -173.738 19.7638 -1e-006 5.32907e-015 -69.8383 0.000563991 0.00320148 18.6534 -3e-006 -4.44089e-015 -32.2188 3.68878 4.14812 5.09143 13.9567 9.06799e-007 109.592 1.23207 -4.85172 4.288 7.10543e-015 3.55271e-015 65.396 0.00244239 0.000609869 3.85799 -1.77636e-015 -3.55271e-015 -38.9568 0.00139538 0.00280539 -1.1e-005 7e-006 8.75617 -125.359 10.7297 -176.425 19.7638 2e-006 3.9968e-015 -78.9713 0.000282046 0.0029229 18.6534 3e-006 3.55271e-015 -11.6294 -7.26671 -1.42409 5.09143 13.9567 -1.50909e-006 100.744 -0.895889 4.91369 4.288 -5.86198e-014 -1e-006 51.2981 0.000778631 0.000284495 3.85799 -3.9968e-015 -5.32907e-015 -44.6273 0.000110392 0.000237492 8.98029 -0.006324 1.74464 2.54288 -0.128561 -2.91592 8.04394 -0.006286 9.8e-005 2.2025 -0.299716 -7.59319 8.04373 -0.006286 -1.99923e-005 0.767641 0.213126 -4.27014 8.04393 -0.008224 0.00013 2.616 -0.688717 -5.17816 10.6688 1.06807 4.40664e-005 -10.4616 -0.408548 4.44665 -2.75632 -4.66964 -9.31593 -128.561 -83.3958 156.291 19.0492 1.06581e-014 -3e-006 77.9036 -6.74573 -108.706 10.3706 0 -1.77636e-015 -77.0028 8.35938e-005 0.000779112 22.8631 1.77636e-015 2.66454e-015 -17.9935 14.8892 6.01992 6.48256 0.103652 0.504496 -61.2551 -4.93321 -14.7088 3.66843 -1.03739e-012 2e-006 14.6906 0.00152156 0.0018073 -4.12647 -4.79454 8.72753 144.453 83.9746 -80.3867 19.0492 4.44089e-014 -3e-006 77.2624 -11.0559 90.4181 10.3706 -7.10543e-015 -2.66454e-015 -103.177 -0.000294593 0.00253389 22.8631 2.4869e-014 2.66454e-015 21.9307 -20.6306 -12.6337 6.48256 0.103653 -0.504498 53.5052 11.4851 -10.4798 3.66843 3.55272e-015 1.77636e-015 25.9403 9.47153e-006 -7.135e-006 7.52728 -0.006649 -0.000330001 9.74425 2.81265 10.1505 8.47683 -0.006462 0.000192002 15.3919 -1.65075 -4.82129 8.41604 3e-006 1.36557e-013 -91.5576 -0.265072 -2.6471 -3e-006 5e-006 -3e-006 -23.1098 1.37701e-015 90 7.07809e-009 -0.499996 -1.13717e-005 -69.2013 90 159.201 0 0 0 -101.552 -7.01671e-015 -180 3.60363 13.739 3.88993 -22.989 1.37021e-015 90 0 0 0 -82.8364 -7.01671e-015 -180 0 0 0 -114.791 -4.07076e-006 -1.7968e-005 0 0 0 130.241 -2.5486e-005 2.52722e-006 0 0 0 -1.16772 4.35312e-007 1.01027e-007 0 0 0 -23.6485 2.53576e-006 1.81349e-006 0 0 0 -26.1943 4.34545e-007 7.08733e-007 15.5776 -0.000389 -7.00002e-006 -1.16382e-033 -6.70898e-016 -9.93923e-017 9.40381 1.03965 -6.51623 -5.8163 -20.0451 20.1767 2.77011 -0.006023 0.002111 2.27055 -18.4985 -0.511609 9.40416 1.03961 6.51626 -5.81644 20.0451 -20.1766 2.77011 -0.006046 -0.002105 2.2711 18.5016 0.513581 
0 0 0.240689 -0 -90 -0 0.851312 -28.7007 47.6851 89.8594 -1.64407 85.7515 0 0 0 -90.0001 0.000138853 -79.9241 -6.3747 -3.85964 -1.1328 143.877 -6.03321 -4.55521 10.3821 -0.008041 4.9e-005 -8.50877 -0.150862 4.08874 10.3832 -0.008117 0.000128 0.647074 0.610219 4.06882 10.3867 -0.007339 0.000117 26.6654 0.0726485 8.58491 10.3865 -0.007453 -0.000469 25.7344 3.87606 3.40272 1.1e-005 -1.1e-005 -8.75617 -91.1957 8.52827 -173.872 19.7638 -1e-006 6.21725e-015 -76.3525 0.000376191 0.00320132 18.6534 -3e-006 4.44089e-015 -30.0946 3.14333 4.52054 5.09143 13.9567 9.36569e-007 105.264 1.55696 -4.76582 4.288 -2.13163e-014 0 58.0557 0.00234534 0.000916838 3.85799 7.10543e-015 -3.55271e-015 -35.0825 0.00158104 0.00270429 -1.1e-005 7e-006 8.75617 -123.426 10.5358 -177.645 19.7638 2e-006 4.88498e-015 -78.2534 0.000300746 0.00292286 18.6534 3e-006 2.66454e-015 -11.8118 -7.59459 -1.21996 5.09143 13.9567 -1.51848e-006 102.542 -0.850238 4.90873 4.288 -7.9936e-014 -1e-006 51.0543 0.000776518 0.000287819 3.85799 -4.44089e-015 0 -43.8234 0.000114322 0.000236625 9.00643 -0.006324 1.60049 2.54315 -0.121243 -2.75123 8.04394 -0.006286 9.8e-005 1.69672 -0.211012 -6.88704 8.04373 -0.006286 -1.99996e-005 0.452371 0.239746 -3.87175 8.04393 -0.008224 0.000129999 2.46338 -0.625483 -4.69469 10.6688 1.06807 4.40685e-005 -10.4619 -0.39609 4.34597 -2.79417 -4.67415 -9.30229 -130.029 -83.5585 153.801 19.0492 7.10543e-015 -3e-006 77.5886 -7.55004 -107.605 10.3706 -1.77636e-014 2.66454e-015 -75.6533 9.32046e-005 0.000779746 22.8631 -1.77636e-015 9.32588e-015 -18.0796 15.4933 5.47623 6.48256 0.103652 0.504496 -61.8203 -4.78457 -14.757 3.66843 -8.38441e-013 2e-006 12.8005 0.00145605 0.00185819 -4.09136 -4.78995 8.74646 146.092 84.1338 -84.4074 19.0492 3.55271e-014 -3e-006 79.3092 -15.2462 93.1149 10.3706 -3.55271e-015 8.88179e-016 -100.034 -0.000209609 0.00253695 22.8631 -7.10543e-015 -1.06581e-014 24.3562 -19.4221 -11.276 6.48256 0.103653 -0.504498 49.9715 12.1027 -9.75724 3.66843 2.84217e-014 2.04281e-014 26.5136 9.22865e-006 -7.10776e-006 7.52728 -0.006649 -0.000330001 9.74282 2.81123 10.1441 8.47683 -0.006462 0.000192002 15.3914 -1.65086 -4.82188 8.41604 3e-006 1.16351e-013 -90.5659 0.270165 -2.78208 -3e-006 5e-006 -3e-006 -23.1098 1.37701e-015 90 7.18692e-009 -0.499996 -1.13722e-005 -69.3911 90 159.391 0 0 0 -101.852 -7.01671e-015 -180 3.5857 13.7441 3.88993 -22.989 1.37021e-015 90 0 0 0 -82.8989 -7.01671e-015 -180 0 0 0 -114.928 -4.07924e-006 -1.80043e-005 0 0 0 130.328 -2.49106e-005 2.5087e-006 0 0 0 -1.09276 2.78611e-007 8.28355e-008 0 0 0 -23.4986 2.11387e-006 1.62047e-006 0 0 0 -26.1943 4.31648e-007 7.12098e-007 15.5776 -0.000389 -7.00002e-006 3.18055e-015 -1.73937e-016 -1.98785e-016 9.40381 1.03965 -6.51623 -5.83851 -20.0685 20.112 2.77011 -0.006023 0.002111 2.27055 -18.4985 -0.511609 9.40416 1.03961 6.51626 -5.83864 20.0685 -20.1118 2.77011 -0.006046 -0.002105 2.2711 18.5016 0.513581 
0 0 0.24069 -0 -90 -0 0.662107 -28.7007 48.1452 89.9049 -1.28447 86.9928 0 0 0 -89.9995 -4.43093e-005 -81.2169 -6.39837 -3.85964 -0.988643 142.653 -5.3897 -6.16359 10.3821 -0.008041 4.9e-005 -9.45623 -0.245747 2.17886 10.3832 -0.008117 0.000128 3.17226 1.00093 2.64499 10.3867 -0.007339 0.000117 28.5086 -0.15288 8.48818 10.3865 -0.007453 -0.000469 27.3673 2.70087 3.60843 1.1e-005 -1.1e-005 -8.75617 -95.2757 7.28211 -174.173 19.7638 -1e-006 1.77636e-015 -83.2269 0.000184776 0.00320024 18.6534 -3e-006 0 -27.9645 2.55233 4.85302 5.09143 13.9567 9.134e-007 98.5377 2.05205 -4.59507 4.288 0 -1.77636e-015 46.5763 0.00211592 0.00136494 3.85799 -7.10543e-015 3.55271e-015 -28.9912 0.00185912 0.00252145 -1.1e-005 7e-006 8.75617 -121.929 10.0229 -179.057 19.7638 2e-006 3.10862e-015 -76.7117 0.000341185 0.0029227 18.6534 3e-006 4.44089e-016 -13.7151 -7.7045 -1.13372 5.09143 13.9567 -1.52628e-006 105.543 -0.779727 4.89624 4.288 -6.21725e-014 -1e-006 50.5321 0.000772885 0.000294993 3.85799 -1.33227e-014 1.77636e-015 -42.4193 0.000120783 0.000234532 9.04003 -0.006324 1.39686 2.54359 -0.10976 -2.49281 8.04394 -0.006286 9.8e-005 0.972919 -0.10691 -5.91545 8.04373 -0.006286 -2.00095e-005 0.145676 0.26182 -3.32423 8.04393 -0.008224 0.000129999 2.10197 -0.527474 -4.03251 10.6688 1.06807 4.40727e-005 -10.4625 -0.359924 4.05393 -2.86056 -4.68208 -9.27804 -132.812 -83.8314 149.99 19.0492 -1.77636e-015 -3e-006 77.4878 -8.51506 -106.055 10.3706 1.06581e-014 1.33227e-015 -74.4769 0.000101448 0.000780577 22.8631 8.88179e-015 -5.32907e-015 -18.0064 16.1732 4.80026 6.48256 0.103652 0.504496 -62.3886 -4.63442 -14.804 3.66843 -7.05214e-013 2e-006 10.9103 0.00139019 0.00190647 -4.02949 -4.78187 8.7794 149.241 84.3935 -90.1687 19.0492 3.01981e-014 -3e-006 82.4512 -18.5216 96.9833 10.3706 7.10543e-015 3.55272e-015 -95.065 -0.000125745 0.00253377 22.8631 7.10543e-015 -3.55272e-015 26.4896 -17.4503 -9.10407 6.48256 0.103653 -0.504498 44.3515 12.9866 -8.53562 3.66843 -7.10543e-015 -5.32907e-015 27.3004 8.99549e-006 -7.01102e-006 7.52728 -0.006649 -0.00033 9.73831 2.80749 10.1281 8.47683 -0.006462 0.000192002 15.4104 -1.65571 -4.833 8.41604 3e-006 9.72556e-014 -89.1596 0.894469 -2.98306 -3e-006 5e-006 -3e-006 -23.1098 1.37701e-015 90 7.23013e-009 -0.499996 -1.1373e-005 -76.1627 90 166.163 0 0 0 -102.152 -7.01671e-015 -180 3.56778 13.7492 3.88993 -22.989 1.37021e-015 90 0 0 0 -82.9613 -7.01671e-015 -180 0 0 0 -115.066 -4.10877e-006 -1.80503e-005 0 0 0 130.416 -2.45248e-005 2.47059e-006 0 0 0 -1.01779 1.94895e-007 6.93181e-008 0 0 0 -23.3487 1.79175e-006 1.46913e-006 0 0 0 -26.1943 4.19075e-007 7.1138e-007 15.5776 -0.000389 -7.00002e-006 3.18055e-015 -3.23025e-016 -1.49089e-016 9.40381 1.03965 -6.51623 -5.89464 -20.1277 19.9484 2.77011 -0.006023 0.002111 2.27055 -18.4985 -0.511609 9.40416 1.03961 6.51626 -5.89474 20.1277 -19.9484 2.77011 -0.006046 -0.002105 2.2711 18.5016 0.513581 
0 0 0.24069 -0 -90 -0 0.430256 -28.7007 48.6554 89.95 -0.793777 88.4394 0 0 0 -89.999 0.000320305 -82.7484 -6.42273 -3.85964 -0.817327 141.124 -4.56002 -7.7325 10.3821 -0.008041 4.9e-005 -10.6623 -0.311417 0.00807061 10.3832 -0.008117 0.000128 6.57503 1.34282 1.05216 10.3867 -0.007339 0.000117 30.9249 -0.523766 8.51223 10.3865 -0.007453 -0.000469 29.2443 0.933133 4.07184 1.1e-005 -1.1e-005 -8.75617 -99.5195 5.80651 -174.633 19.7638 -1e-006 3.55271e-015 -89.9887 -6.28169e-007 0.0031997 18.6534 -3e-006 -2.66453e-015 -25.4138 2.03279 5.07825 5.09143 13.9567 9.01404e-007 90.9307 2.58681 -4.3389 4.288 7.10543e-015 -3.55271e-015 33.6125 0.00175574 0.00180449 3.85799 -7.10543e-015 3.55271e-015 -22.0635 0.00214976 0.00227901 -1.1e-005 7e-006 8.75617 -120.693 9.2466 179.491 19.7638 2e-006 -8.88178e-016 -74.5332 0.000398057 0.00292256 18.6534 3e-006 -2.22045e-015 -16.9373 -7.58948 -1.16892 5.09143 13.9567 -1.53521e-006 109.55 -0.68706 4.8745 4.288 -6.39488e-014 -1e-006 49.812 0.00076817 0.000304876 3.85799 0 -1.77636e-015 -40.5315 0.000129144 0.000231182 9.07468 -0.006324 1.15483 2.54421 -0.0957639 -2.17773 8.04394 -0.006286 9.8e-005 0.120917 -0.0161417 -4.77181 8.04373 -0.006286 -2.00059e-005 -0.144993 0.276872 -2.68012 8.04393 -0.008224 0.000129999 1.60798 -0.41242 -3.25445 10.6688 1.06807 4.40796e-005 -10.4634 -0.30182 3.58501 -2.9525 -4.69308 -9.24368 -137.109 -84.1809 144.664 19.0492 1.24345e-014 -3e-006 77.5478 -9.52223 -104.201 10.3706 -2.13163e-014 5.32907e-015 -73.3914 0.000109398 0.000781581 22.8631 -8.88179e-015 -4.44089e-016 -17.8162 16.8882 4.04809 6.48256 0.103652 0.504496 -62.9511 -4.48622 -14.8486 3.66843 -6.10179e-013 2e-006 9.02759 0.001324 0.00195208 -3.94322 -4.77063 8.82461 154.139 84.7189 -97.5903 19.0492 2.84217e-014 -3e-006 86.335 -20.8988 101.326 10.3706 0 -4.44089e-015 -89.0646 1.91346e-005 0.00253522 22.8631 2.13163e-014 1.77636e-014 27.7843 -14.9968 -6.68773 6.48256 0.103653 -0.504498 36.8765 13.9661 -6.79121 3.66843 -2.13163e-014 -6.21725e-015 28.2323 8.74708e-006 -6.82245e-006 7.52728 -0.006649 -0.00033 9.7319 2.80232 10.1061 8.47683 -0.006462 0.000192002 15.4411 -1.66345 -4.85056 8.41604 3e-006 6.21725e-014 -87.5142 1.5225 -3.23084 -3e-006 5e-006 -3e-006 -23.1098 1.37701e-015 90 7.19859e-009 -0.499996 -1.13743e-005 -83.1553 90 173.155 0 0 0 -102.452 -7.01671e-015 -180 3.54985 13.7544 3.88993 -22.989 1.37021e-015 90 0 0 0 -83.0238 -3.24611e-014 -180 0 0 0 -115.203 -4.16112e-006 -1.80951e-005 0 0 0 130.503 -2.42792e-005 2.41554e-006 0 0 0 -0.942831 1.4708e-007 5.90173e-008 0 0 0 -23.1987 1.55318e-006 1.35472e-006 0 0 0 -26.1943 4.02686e-007 7.09718e-007 15.5776 -0.000389 -7.00002e-006 2.58627e-034 1.49089e-016 -9.93923e-017 9.40381 1.03965 -6.51623 -5.96873 -20.2051 19.7336 2.77011 -0.006023 0.002111 2.27055 -18.4985 -0.511609 9.40416 1.03961 6.51626 -5.96886 20.2051 -19.7335 2.77011 -0.006046 -0.002105 2.2711 18.5016 0.513581 
